<?xml version="1.0" encoding="UTF-8"?>
<!-- Do not edit this file with editors other than draw.io -->
<!DOCTYPE svg PUBLIC "-//W3C//DTD SVG 1.1//EN" "http://www.w3.org/Graphics/SVG/1.1/DTD/svg11.dtd">
<svg xmlns="http://www.w3.org/2000/svg" xmlns:xlink="http://www.w3.org/1999/xlink" version="1.1" width="216px" height="162px" viewBox="-0.5 -0.5 216 162" content="&lt;mxfile host=&quot;app.diagrams.net&quot; agent=&quot;Mozilla/5.0 (Windows NT 10.0; Win64; x64) AppleWebKit/537.36 (KHTML, like Gecko) Chrome/128.0.0.0 Safari/537.36&quot; version=&quot;24.7.16&quot;&gt;&#10;  &lt;diagram name=&quot;Page-1&quot; id=&quot;IPiC_58atadjHy2K7iB7&quot;&gt;&#10;    &lt;mxGraphModel dx=&quot;1434&quot; dy=&quot;780&quot; grid=&quot;1&quot; gridSize=&quot;10&quot; guides=&quot;1&quot; tooltips=&quot;1&quot; connect=&quot;1&quot; arrows=&quot;1&quot; fold=&quot;1&quot; page=&quot;1&quot; pageScale=&quot;1&quot; pageWidth=&quot;827&quot; pageHeight=&quot;1169&quot; math=&quot;0&quot; shadow=&quot;0&quot;&gt;&#10;      &lt;root&gt;&#10;        &lt;mxCell id=&quot;0&quot; /&gt;&#10;        &lt;mxCell id=&quot;1&quot; parent=&quot;0&quot; /&gt;&#10;        &lt;mxCell id=&quot;-EkzhePWK98N7YUn-Ski-7&quot; style=&quot;edgeStyle=orthogonalEdgeStyle;rounded=0;orthogonalLoop=1;jettySize=auto;html=1;entryX=0.5;entryY=0;entryDx=0;entryDy=0;sketch=1;curveFitting=1;jiggle=2;&quot; parent=&quot;1&quot; source=&quot;-EkzhePWK98N7YUn-Ski-4&quot; target=&quot;-EkzhePWK98N7YUn-Ski-5&quot; edge=&quot;1&quot;&gt;&#10;          &lt;mxGeometry relative=&quot;1&quot; as=&quot;geometry&quot; /&gt;&#10;        &lt;/mxCell&gt;&#10;        &lt;mxCell id=&quot;-EkzhePWK98N7YUn-Ski-4&quot; value=&quot;&quot; style=&quot;strokeWidth=2;html=1;shape=mxgraph.flowchart.terminator;whiteSpace=wrap;deletable=0;cloneable=1;rotatable=0;gradientColor=none;sketch=1;curveFitting=1;jiggle=2;&quot; parent=&quot;1&quot; vertex=&quot;1&quot;&gt;&#10;          &lt;mxGeometry x=&quot;364&quot; y=&quot;230&quot; width=&quot;100&quot; height=&quot;60&quot; as=&quot;geometry&quot; /&gt;&#10;        &lt;/mxCell&gt;&#10;        &lt;mxCell id=&quot;-EkzhePWK98N7YUn-Ski-5&quot; value=&quot;&quot; style=&quot;rounded=1;whiteSpace=wrap;html=1;absoluteArcSize=1;arcSize=14;strokeWidth=2;sketch=1;curveFitting=1;jiggle=2;&quot; parent=&quot;1&quot; vertex=&quot;1&quot;&gt;&#10;          &lt;mxGeometry x=&quot;250&quot; y=&quot;350&quot; width=&quot;100&quot; height=&quot;40&quot; as=&quot;geometry&quot; /&gt;&#10;        &lt;/mxCell&gt;&#10;      &lt;/root&gt;&#10;    &lt;/mxGraphModel&gt;&#10;  &lt;/diagram&gt;&#10;&lt;/mxfile&gt;&#10;" resource="https://app.diagrams.net/#Htungstengmd%2Fdrawio-diagrams%2Fmain%2FUntitled%20Diagram.drawio.svg#%7B%22pageId%22%3A%22IPiC_58atadjHy2K7iB7%22%7D"><defs/><g><g data-cell-id="0"><g data-cell-id="1"><g data-cell-id="-EkzhePWK98N7YUn-Ski-7"><g><path d="M 115 31 L 51 31 L 51 114.63" fill="none" stroke="none" pointer-events="stroke"/><path d="M 51 119.88 L 47.5 112.88 L 51 114.63 L 54.5 112.88 Z" fill="none" stroke="none" pointer-events="all"/><path d="M 115 31 C 88.65 29.06 63.01 28.37 51 31 M 115 31 C 89.59 29.06 62.43 29.95 51 31 M 51 31 C 48.84 51.21 48.73 66.29 51 114.63 M 51 31 C 50.29 64.44 51.1 96.17 51 114.63" fill="none" stroke="rgb(0, 0, 0)" stroke-linejoin="round" stroke-linecap="round" stroke-miterlimit="10" pointer-events="stroke"/><path d="M 47.75 112.59 C 47.75 112.59 47.75 112.59 47.75 112.59 M 47.75 112.59 C 47.75 112.59 47.75 112.59 47.75 112.59 M 49.46 116.72 C 49.48 116.31 51.12 115.6 51.43 114.46 M 49.46 116.72 C 50.15 116.19 50.7 115.39 51.43 114.46" fill="none" stroke="rgb(0, 0, 0)" stroke-width="0.5" stroke-linejoin="round" stroke-linecap="round" stroke-miterlimit="10" pointer-events="all"/><path d="M 51 119.88 C 49.02 116.22 47.19 113.29 47.5 112.88 M 51 119.88 C 49.72 116.38 47.7 113.93 47.5 112.88 M 47.5 112.88 C 47.94 113.4 48.72 112.98 51 114.63 M 47.5 112.88 C 48.58 113.59 50.14 113.96 51 114.63 M 51 114.63 C 52.7 113.97 52.69 113.78 54.5 112.88 M 51 114.63 C 52.39 114.19 53.99 113.45 54.5 112.88 M 54.5 112.88 C 52.34 116.14 53.45 116.8 51 119.88 M 54.5 112.88 C 53.99 114.64 53.08 116.63 51 119.88" fill="none" stroke="rgb(0, 0, 0)" stroke-linejoin="round" stroke-linecap="round" stroke-miterlimit="10" pointer-events="all"/></g></g><g data-cell-id="-EkzhePWK98N7YUn-Ski-4"><g><path d="M 145.61 1 L 184.39 1 C 201.29 1 215 14.43 215 31 C 215 47.57 201.29 61 184.39 61 L 145.61 61 C 128.71 61 115 47.57 115 31 C 115 14.43 128.71 1 145.61 1 Z" fill="none" stroke="none" pointer-events="all"/><path d="M 145.61 1 C 153.72 -0.36 161.46 0.75 184.39 1 C 201.38 1.74 217.77 17.7 215 31 C 219.64 42.42 195.77 66.21 184.39 61 C 168.87 65.1 166.04 56.34 145.61 61 C 124.77 62.47 117.19 42.44 115 31 C 112.79 14.93 126.68 -0.67 145.61 1 C 145.61 1 145.61 1 145.61 1" fill="rgb(255, 255, 255)" stroke="none" pointer-events="all"/><path d="M 145.61 1 C 157.26 3.86 177.83 1.97 184.39 1 M 145.61 1 C 161.47 1.89 177.29 -0.53 184.39 1 M 184.39 1 C 202.3 1.13 217.72 14.8 215 31 M 184.39 1 C 205.77 -0.04 214.65 13.22 215 31 M 215 31 C 215.33 48.74 199.1 63.83 184.39 61 M 215 31 C 211.17 49.99 197.53 65 184.39 61 M 184.39 61 C 170.6 62.61 159.89 63.78 145.61 61 M 184.39 61 C 169.19 59.6 154.65 59.97 145.61 61 M 145.61 61 C 131.83 59.74 117.16 49.17 115 31 M 145.61 61 C 131.67 64.47 112.54 47.21 115 31 M 115 31 C 116.82 16.05 128 -1.55 145.61 1 M 115 31 C 116.02 13.98 130.76 2.9 145.61 1 M 145.61 1 C 145.61 1 145.61 1 145.61 1 M 145.61 1 C 145.61 1 145.61 1 145.61 1" fill="none" stroke="rgb(0, 0, 0)" stroke-width="2" stroke-linejoin="round" stroke-linecap="round" stroke-miterlimit="10" pointer-events="all"/></g></g><g data-cell-id="-EkzhePWK98N7YUn-Ski-5"><g><rect x="1" y="121" width="100" height="40" rx="7" ry="7" fill="none" stroke="none" pointer-events="all"/><path d="M 8 121 C 31.62 123.2 39.25 122.72 94 121 C 93.74 118.44 97.53 125.45 101 128 C 102.19 140.97 102.74 142.46 101 154 C 99.37 163.93 95.86 164.08 94 161 C 72.14 165.1 49.72 159.51 8 161 C 5.74 165.66 -1.23 158.63 1 154 C 5.53 142.25 -1.3 132.67 1 128 C 1.89 120.84 -0.74 118.26 8 121" fill="rgb(255, 255, 255)" stroke="none" pointer-events="all"/><path d="M 8 121 C 43.34 122.28 71.54 120.79 94 121 M 8 121 C 29.35 121.22 51.43 121.24 94 121 M 94 121 C 101.08 118.18 101.48 122.96 101 128 M 94 121 C 98.94 116.48 102.58 120.98 101 128 M 101 128 C 103.34 133.64 101.73 148.13 101 154 M 101 128 C 102.56 138.01 100.44 147.64 101 154 M 101 154 C 100.84 155.19 97.38 161.89 94 161 M 101 154 C 102.3 160.03 97.64 164.71 94 161 M 94 161 C 59.85 160.06 27.37 163.39 8 161 M 94 161 C 68.76 159.8 43.01 159.59 8 161 M 8 161 C 5.34 158.08 1.07 155.16 1 154 M 8 161 C 3.89 161.47 -1.94 155.33 1 154 M 1 154 C 5.07 145.36 4.9 139.73 1 128 M 1 154 C 0.37 145.81 -0.88 139.59 1 128 M 1 128 C -2.69 123.39 4.76 124.37 8 121 M 1 128 C -2.15 127.6 5.73 116.41 8 121" fill="none" stroke="rgb(0, 0, 0)" stroke-width="2" stroke-linejoin="round" stroke-linecap="round" stroke-miterlimit="10" pointer-events="all"/></g></g></g></g></g></svg>