<?xml version="1.0" encoding="UTF-8"?>
<!-- Do not edit this file with editors other than draw.io -->
<!DOCTYPE svg PUBLIC "-//W3C//DTD SVG 1.1//EN" "http://www.w3.org/Graphics/SVG/1.1/DTD/svg11.dtd">
<svg xmlns="http://www.w3.org/2000/svg" xmlns:xlink="http://www.w3.org/1999/xlink" version="1.1" width="102px" height="172px" viewBox="-0.5 -0.5 102 172" content="&lt;mxfile host=&quot;app.diagrams.net&quot; agent=&quot;Mozilla/5.0 (Windows NT 10.0; Win64; x64) AppleWebKit/537.36 (KHTML, like Gecko) Chrome/128.0.0.0 Safari/537.36&quot; version=&quot;24.7.16&quot;&gt;&#10;  &lt;diagram name=&quot;Page-1&quot; id=&quot;IPiC_58atadjHy2K7iB7&quot;&gt;&#10;    &lt;mxGraphModel dx=&quot;1434&quot; dy=&quot;780&quot; grid=&quot;1&quot; gridSize=&quot;10&quot; guides=&quot;1&quot; tooltips=&quot;1&quot; connect=&quot;1&quot; arrows=&quot;1&quot; fold=&quot;1&quot; page=&quot;1&quot; pageScale=&quot;1&quot; pageWidth=&quot;827&quot; pageHeight=&quot;1169&quot; math=&quot;0&quot; shadow=&quot;0&quot;&gt;&#10;      &lt;root&gt;&#10;        &lt;mxCell id=&quot;0&quot; /&gt;&#10;        &lt;mxCell id=&quot;1&quot; parent=&quot;0&quot; /&gt;&#10;        &lt;mxCell id=&quot;-EkzhePWK98N7YUn-Ski-7&quot; style=&quot;edgeStyle=orthogonalEdgeStyle;rounded=0;orthogonalLoop=1;jettySize=auto;html=1;entryX=0.5;entryY=0;entryDx=0;entryDy=0;sketch=1;curveFitting=1;jiggle=2;&quot; edge=&quot;1&quot; parent=&quot;1&quot; source=&quot;-EkzhePWK98N7YUn-Ski-4&quot; target=&quot;-EkzhePWK98N7YUn-Ski-5&quot;&gt;&#10;          &lt;mxGeometry relative=&quot;1&quot; as=&quot;geometry&quot; /&gt;&#10;        &lt;/mxCell&gt;&#10;        &lt;mxCell id=&quot;-EkzhePWK98N7YUn-Ski-4&quot; value=&quot;&quot; style=&quot;strokeWidth=2;html=1;shape=mxgraph.flowchart.terminator;whiteSpace=wrap;deletable=0;cloneable=1;rotatable=0;gradientColor=none;sketch=1;curveFitting=1;jiggle=2;&quot; vertex=&quot;1&quot; parent=&quot;1&quot;&gt;&#10;          &lt;mxGeometry x=&quot;364&quot; y=&quot;230&quot; width=&quot;100&quot; height=&quot;60&quot; as=&quot;geometry&quot; /&gt;&#10;        &lt;/mxCell&gt;&#10;        &lt;mxCell id=&quot;-EkzhePWK98N7YUn-Ski-5&quot; value=&quot;&quot; style=&quot;rounded=1;whiteSpace=wrap;html=1;absoluteArcSize=1;arcSize=14;strokeWidth=2;sketch=1;curveFitting=1;jiggle=2;&quot; vertex=&quot;1&quot; parent=&quot;1&quot;&gt;&#10;          &lt;mxGeometry x=&quot;364&quot; y=&quot;360&quot; width=&quot;100&quot; height=&quot;40&quot; as=&quot;geometry&quot; /&gt;&#10;        &lt;/mxCell&gt;&#10;      &lt;/root&gt;&#10;    &lt;/mxGraphModel&gt;&#10;  &lt;/diagram&gt;&#10;&lt;/mxfile&gt;&#10;"><defs/><g><g data-cell-id="0"><g data-cell-id="1"><g data-cell-id="-EkzhePWK98N7YUn-Ski-7"><g><path d="M 51 61 L 51 124.63" fill="none" stroke="none" pointer-events="stroke"/><path d="M 51 129.88 L 47.5 122.88 L 51 124.63 L 54.5 122.88 Z" fill="none" stroke="none" pointer-events="all"/><path d="M 51 61 C 47.88 82.6 46.62 106.14 51 124.63 M 51 61 C 50.64 84.64 49.05 110.95 51 124.63" fill="none" stroke="rgb(0, 0, 0)" stroke-linejoin="round" stroke-linecap="round" stroke-miterlimit="10" pointer-events="stroke"/><path d="M 47.59 122.77 C 47.59 122.77 47.59 122.77 47.59 122.77 M 47.59 122.77 C 47.59 122.77 47.59 122.77 47.59 122.77 M 49.3 126.91 C 49.32 126.49 50.96 125.79 51.27 124.64 M 49.3 126.91 C 49.99 126.38 50.54 125.57 51.27 124.64" fill="none" stroke="rgb(0, 0, 0)" stroke-width="0.5" stroke-linejoin="round" stroke-linecap="round" stroke-miterlimit="10" pointer-events="all"/><path d="M 51 129.88 C 49.02 126.22 47.19 123.29 47.5 122.88 M 51 129.88 C 49.72 126.38 47.7 123.93 47.5 122.88 M 47.5 122.88 C 47.94 123.4 48.72 122.98 51 124.63 M 47.5 122.88 C 48.58 123.59 50.14 123.96 51 124.63 M 51 124.63 C 52.7 123.97 52.69 123.78 54.5 122.88 M 51 124.63 C 52.39 124.19 53.99 123.45 54.5 122.88 M 54.5 122.88 C 52.34 126.14 53.45 126.8 51 129.88 M 54.5 122.88 C 53.99 124.64 53.08 126.63 51 129.88" fill="none" stroke="rgb(0, 0, 0)" stroke-linejoin="round" stroke-linecap="round" stroke-miterlimit="10" pointer-events="all"/></g></g><g data-cell-id="-EkzhePWK98N7YUn-Ski-4"><g><path d="M 31.61 1 L 70.39 1 C 87.29 1 101 14.43 101 31 C 101 47.57 87.29 61 70.39 61 L 31.61 61 C 14.71 61 1 47.57 1 31 C 1 14.43 14.71 1 31.61 1 Z" fill="none" stroke="none" pointer-events="all"/><path d="M 31.61 1 C 39.72 -0.36 47.46 0.75 70.39 1 C 87.38 1.74 103.77 17.7 101 31 C 105.64 42.42 81.77 66.21 70.39 61 C 54.87 65.1 52.04 56.34 31.61 61 C 10.77 62.47 3.19 42.44 1 31 C -1.21 14.93 12.68 -0.67 31.61 1 C 31.61 1 31.61 1 31.61 1" fill="rgb(255, 255, 255)" stroke="none" pointer-events="all"/><path d="M 31.61 1 C 43.26 3.86 63.83 1.97 70.39 1 M 31.61 1 C 47.47 1.89 63.29 -0.53 70.39 1 M 70.39 1 C 88.3 1.13 103.72 14.8 101 31 M 70.39 1 C 91.77 -0.04 100.65 13.22 101 31 M 101 31 C 101.33 48.74 85.1 63.83 70.39 61 M 101 31 C 97.17 49.99 83.53 65 70.39 61 M 70.39 61 C 56.6 62.61 45.89 63.78 31.61 61 M 70.39 61 C 55.19 59.6 40.65 59.97 31.61 61 M 31.61 61 C 17.83 59.74 3.16 49.17 1 31 M 31.61 61 C 17.67 64.47 -1.46 47.21 1 31 M 1 31 C 2.82 16.05 14 -1.55 31.61 1 M 1 31 C 2.02 13.98 16.76 2.9 31.61 1 M 31.61 1 C 31.61 1 31.61 1 31.61 1 M 31.61 1 C 31.61 1 31.61 1 31.61 1" fill="none" stroke="rgb(0, 0, 0)" stroke-width="2" stroke-linejoin="round" stroke-linecap="round" stroke-miterlimit="10" pointer-events="all"/></g></g><g data-cell-id="-EkzhePWK98N7YUn-Ski-5"><g><rect x="1" y="131" width="100" height="40" rx="7" ry="7" fill="none" stroke="none" pointer-events="all"/><path d="M 8 131 C 31.62 133.2 39.25 132.72 94 131 C 93.74 128.44 97.53 135.45 101 138 C 102.19 150.97 102.74 152.46 101 164 C 99.37 173.93 95.86 174.08 94 171 C 72.14 175.1 49.72 169.51 8 171 C 5.74 175.66 -1.23 168.63 1 164 C 5.53 152.25 -1.3 142.67 1 138 C 1.89 130.84 -0.74 128.26 8 131" fill="rgb(255, 255, 255)" stroke="none" pointer-events="all"/><path d="M 8 131 C 43.34 132.28 71.54 130.79 94 131 M 8 131 C 29.35 131.22 51.43 131.24 94 131 M 94 131 C 101.08 128.18 101.48 132.96 101 138 M 94 131 C 98.94 126.48 102.58 130.98 101 138 M 101 138 C 103.34 143.64 101.73 158.13 101 164 M 101 138 C 102.56 148.01 100.44 157.64 101 164 M 101 164 C 100.84 165.19 97.38 171.89 94 171 M 101 164 C 102.3 170.03 97.64 174.71 94 171 M 94 171 C 59.85 170.06 27.37 173.39 8 171 M 94 171 C 68.76 169.8 43.01 169.59 8 171 M 8 171 C 5.34 168.08 1.07 165.16 1 164 M 8 171 C 3.89 171.47 -1.94 165.33 1 164 M 1 164 C 5.07 155.36 4.9 149.73 1 138 M 1 164 C 0.37 155.81 -0.88 149.59 1 138 M 1 138 C -2.69 133.39 4.76 134.37 8 131 M 1 138 C -2.15 137.6 5.73 126.41 8 131" fill="none" stroke="rgb(0, 0, 0)" stroke-width="2" stroke-linejoin="round" stroke-linecap="round" stroke-miterlimit="10" pointer-events="all"/></g></g></g></g></g></svg>